{"title":"Grimm S05E13 720p HDTV x264-Hi10p[tvmt].mkv","uid":13995665,"size":509318645,"categoryP":"video","categoryS":"tv_shows","magnet":"?xt=urn:btih:6cc791eda758d44217a62e8f288ab16a1ba3bef9&amp;dn=Grimm+S05E13+720p+HDTV+x264-Hi10p%5Btvmt%5D.mkv&amp;tr=udp%3A%2F%2Ftracker.leechers-paradise.org%3A6969&amp;tr=udp%3A%2F%2Fzer0day.ch%3A1337&amp;tr=udp%3A%2F%2Fopen.demonii.com%3A1337&amp;tr=udp%3A%2F%2Ftracker.coppersurfer.tk%3A6969&amp;tr=udp%3A%2F%2Fexodus.desync.com%3A6969","seeders":0,"leechers":1,"uploader":"tvmtoday","files":1,"time":1458738609,"description":"DDL:\n\r\nIf you have playback issues, you might want to install a codec pack such as CCCP.\r\n\r\nGeneral\r\nUnique ID : 274108138992170744461812312789873531305 (0xCE374EAA76023F12EDDFDC2F90FF19A9)\r\nComplete name : Grimm S05E13 720p HDTV x264-Hi10p[tvmt].mkv\r\nFormat : Matroska\r\nFormat version : Version 4 / Version 2\r\nFile size : 486 MiB\r\nDuration : 42mn 43s\r\nOverall bit rate : 1 590 Kbps\r\nEncoded date : UTC 2016-03-23 10:17:01\r\nWriting application : mkvmerge v6.7.0 ('Back to the Ground') 64bit built on Jan 9 2014 18:03:17\r\nWriting library : libebml v1.3.0 + libmatroska v1.4.1\r\n\r\nVideo\r\nID : 1\r\nFormat : AVC\r\nFormat/Info : Advanced Video Codec\r\nFormat profile : High   \r\nFormat settings, CABAC : Yes\r\nFormat settings, ReFrames : 16 frames\r\nCodec ID : V_MPEG4/ISO/AVC\r\nDuration : 42mn 43s\r\nBit rate : 1 174 Kbps\r\nWidth : 1 280 pixels\r\nHeight : 720 pixels\r\nDisplay aspect ratio : 16:9\r\nFrame rate : 29.970 fps\r\nColor space : YUV\r\nChroma subsampling : 4:2:0\r\nBit depth : 10 bits\r\nScan type : Progressive\r\nBits/(Pixel*Frame) : 0.043\r\nStream size : 359 MiB (74%)\r\nWriting library : x264 core 142 r2431+42 c69a006 tMod [  :2:0 X86]\r\nEncoding settings : cabac=1 / ref=16 / deblock=1:1:-1 / analyse=0x3:0x113 / me=umh / subme=11 / psy=1 / fade_compensate=0.00 / psy_rd=1.00:0.00 / mixed_ref=1 / me_range=32 / chroma_me=1 / trellis=2 / 8x8dct=1 / cqm=0 / deadzone=21,11 / fast_pskip=1 / chroma_qp_offset=-2 / threads=40 / lookahead_threads=3 / sliced_threads=0 / nr=0 / decimate=1 / interlaced=0 / bluray_compat=0 / constrained_intra=0 / fgo=0 / bframes=16 / b_pyramid=2 / b_adapt=1 / b_bias=0 / direct=1 / weightb=1 / open_gop=0 / weightp=2 / keyint=240 / keyint_min=24 / scenecut=40 / intra_refresh=0 / rc_lookahead=60 / rc=crf / mbtree=1 / crf=20.0000 / qcomp=0.40 / qpmin=0:0:0 / qpmax=81:81:81 / qpstep=4 / ip_ratio=1.40 / aq=1:1.00 / aq-sensitivity=10.00 / aq-factor=1.00:1.00:1.00 / aq2=0 / aq3=0\r\nLanguage : English\r\nDefault : Yes\r\nForced : No\r\n\r\nAudio\r\nID : 2\r\nFormat : AC-3\r\nFormat/Info : Audio Coding 3\r\nMode extension : CM (complete main)\r\nCodec ID : A_AC3\r\nDuration : 42mn 43s\r\nBit rate mode : Constant\r\nBit rate : 384 Kbps\r\nChannel(s) : 6 channels\r\nChannel positions : Front: L C R, Side: L R, LFE\r\nSampling rate : 48.0 KHz\r\nBit depth : 16 bits\r\nCompression mode : Lossy\r\nStream size : 117 MiB (24%)\r\nDefault : Yes\r\nForced : No","torrent":{"xt":"urn:btih:6cc791eda758d44217a62e8f288ab16a1ba3bef9","amp;dn":"Grimm+S05E13+720p+HDTV+x264-Hi10p%5Btvmt%5D.mkv","amp;tr":["udp%3A%2F%2Ftracker.leechers-paradise.org%3A6969","udp%3A%2F%2Fzer0day.ch%3A1337","udp%3A%2F%2Fopen.demonii.com%3A1337","udp%3A%2F%2Ftracker.coppersurfer.tk%3A6969","udp%3A%2F%2Fexodus.desync.com%3A6969"],"infoHash":"6cc791eda758d44217a62e8f288ab16a1ba3bef9","infoHashBuffer":{"type":"Buffer","data":[108,199,145,237,167,88,212,66,23,166,46,143,40,138,177,106,27,163,190,249]},"announce":[],"urlList":[]}}